<svg xmlns="http://www.w3.org/2000/svg" width="120" height="120" fill="none" viewBox="0 0 120 120" id="langchain">
  <g clip-path="url(#clip0_7592_25205)">
    <path fill="#7FC8FF" d="M37.6549 79.8801C44.7143 72.8204 48.6826 63.2351 48.6826 53.2522 48.6826 43.2694 44.7109 33.684 37.6549 26.6244L11.0278 0C3.97179 7.05963 0 16.645 0 26.6278 0 36.6107 3.97179 46.196 11.0278 53.2557L37.6514 79.8801H37.6549ZM93.3698 82.344C86.3138 75.2878 76.7254 71.3159 66.7462 71.3159 56.7671 71.3159 47.1786 75.2878 40.1191 82.344L66.7462 108.972C73.8022 116.028 83.3907 120 93.3733 120 103.356 120 112.941 116.028 120 108.972L93.3733 82.344H93.3698ZM11.0937 108.91C18.1531 115.966 27.7382 119.938 37.7208 119.938V82.2822H.0625C.0659269 92.2651 4.03428 101.85 11.0937 108.91ZM103.65 42.9749C96.5907 35.9187 87.0057 31.9434 77.0196 31.9468 67.0371 31.9468 57.452 35.9187 50.3926 42.9783L77.0196 69.6061 103.65 42.9749Z"></path>
  </g>
  <defs>
    <clipPath id="clip0_7592_25205">
      <rect width="120" height="120" fill="#fff"></rect>
    </clipPath>
  </defs>
</svg>
